<?xml version="1.0" encoding="UTF-8"?>
<svg width="600px" height="180px" viewBox="0 0 600 180" version="1.1" xmlns="http://www.w3.org/2000/svg" xmlns:xlink="http://www.w3.org/1999/xlink">
    <title>Artboard</title>
    <g id="Artboard" stroke="none" stroke-width="1" fill="none" fill-rule="evenodd">
        <g id="Lines" transform="translate(45.000000, 43.000000)" stroke="#DDDDDD" stroke-linecap="round">
            <line x1="32" y1="10" x2="32" y2="74" id="Path-5"></line>
            <line x1="24" y1="13" x2="24" y2="78" id="Path-5"></line>
            <line x1="489" y1="-8.4432461e-14" x2="489" y2="78" id="Path-5"></line>
            <line x1="481" y1="10" x2="481" y2="83" id="Path-5"></line>
            <line x1="270" y1="15" x2="270" y2="74" id="Path-5"></line>
            <line x1="262" y1="10" x2="262" y2="78" id="Path-5"></line>
            <line x1="244" y1="13" x2="244" y2="78" id="Path-5"></line>
            <line x1="236" y1="7" x2="236" y2="74" id="Path-5"></line>
            <line x1="10" y1="26" x2="500" y2="26" id="Path-4"></line>
            <line x1="6" y1="18" x2="510" y2="18" id="Path-4"></line>
            <line x1="6" y1="62" x2="505" y2="62" id="Path-4"></line>
            <line x1="2.36247653e-12" y1="70" x2="500" y2="70" id="Path-4"></line>
        </g>
        <g id="Name" transform="translate(76.850000, 67.650000)" fill="#131415" fill-rule="nonzero">
            <path d="M256.825,26.05 C256.825,24.65 256.275,23.5666667 255.175,22.8 C254.075,22.0333333 252.391667,21.65 250.125,21.65 C248.858333,21.65 247.791667,21.7 246.925,21.8 L246.925,30.3 C247.525,30.3666667 248.05,30.4083333 248.5,30.425 C248.95,30.4416667 249.608333,30.45 250.475,30.45 C252.641667,30.45 254.241667,30.0666667 255.275,29.3 C256.308333,28.5333333 256.825,27.45 256.825,26.05 Z M256.225,11.75 C256.225,10.65 255.766667,9.70833333 254.85,8.925 C253.933333,8.14166667 252.575,7.75 250.775,7.75 C250.008333,7.75 249.325,7.78333333 248.725,7.85 C248.125,7.91666667 247.525,8 246.925,8.1 L246.925,15.75 C247.391667,15.8166667 247.841667,15.8583333 248.275,15.875 C248.708333,15.8916667 249.308333,15.9 250.075,15.9 C252.141667,15.9 253.683333,15.5416667 254.7,14.825 C255.716667,14.1083333 256.225,13.0833333 256.225,11.75 Z M266.025,26.95 C266.025,28.3833333 265.683333,29.75 265,31.05 C264.316667,32.35 263.3,33.4916667 261.95,34.475 C260.6,35.4583333 258.9,36.2416667 256.85,36.825 C254.8,37.4083333 252.391667,37.7 249.625,37.7 C248.025,37.7 246.25,37.6333333 244.3,37.5 C242.35,37.3666667 240.475,37.1833333 238.675,36.95 L238.675,1.15 C239.341667,1.05 240.108333,0.95 240.975,0.85 C241.841667,0.75 242.741667,0.666666667 243.675,0.6 C244.608333,0.533333333 245.533333,0.475 246.45,0.425 C247.366667,0.375 248.191667,0.35 248.925,0.35 C251.591667,0.35 253.925,0.625 255.925,1.175 C257.925,1.725 259.6,2.45833333 260.95,3.375 C262.3,4.29166667 263.308333,5.34166667 263.975,6.525 C264.641667,7.70833333 264.975,8.93333333 264.975,10.2 C264.975,12.1333333 264.45,13.7583333 263.4,15.075 C262.35,16.3916667 260.775,17.4833333 258.675,18.35 C261.175,19.1166667 263.025,20.2166667 264.225,21.65 C265.425,23.0833333 266.025,24.85 266.025,26.95 Z" id="Shape"></path>
            <path d="M298.575,19.05 C298.575,17.3833333 298.341667,15.8583333 297.875,14.475 C297.408333,13.0916667 296.75,11.9 295.9,10.9 C295.05,9.9 294.033333,9.11666667 292.85,8.55 C291.666667,7.98333333 290.341667,7.7 288.875,7.7 C287.441667,7.7 286.125,7.98333333 284.925,8.55 C283.725,9.11666667 282.7,9.9 281.85,10.9 C281,11.9 280.341667,13.0916667 279.875,14.475 C279.408333,15.8583333 279.175,17.3833333 279.175,19.05 C279.175,20.6833333 279.408333,22.1916667 279.875,23.575 C280.341667,24.9583333 281,26.1583333 281.85,27.175 C282.7,28.1916667 283.725,28.9833333 284.925,29.55 C286.125,30.1166667 287.441667,30.4 288.875,30.4 C290.341667,30.4 291.666667,30.1166667 292.85,29.55 C294.033333,28.9833333 295.05,28.1916667 295.9,27.175 C296.75,26.1583333 297.408333,24.9583333 297.875,23.575 C298.341667,22.1916667 298.575,20.6833333 298.575,19.05 Z M307.675,19.05 C307.675,21.75 307.216667,24.25 306.3,26.55 C305.383333,28.85 304.091667,30.8416667 302.425,32.525 C300.758333,34.2083333 298.766667,35.5333333 296.45,36.5 C294.133333,37.4666667 291.558333,37.95 288.725,37.95 C285.891667,37.95 283.325,37.4666667 281.025,36.5 C278.725,35.5333333 276.766667,34.2083333 275.15,32.525 C273.533333,30.8416667 272.291667,28.85 271.425,26.55 C270.558333,24.25 270.125,21.75 270.125,19.05 C270.125,16.35 270.583333,13.8416667 271.5,11.525 C272.416667,9.20833333 273.7,7.20833333 275.35,5.525 C277,3.84166667 278.991667,2.51666667 281.325,1.55 C283.658333,0.583333333 286.241667,0.1 289.075,0.1 C291.908333,0.1 294.466667,0.583333333 296.75,1.55 C299.033333,2.51666667 300.983333,3.84166667 302.6,5.525 C304.216667,7.20833333 305.466667,9.20833333 306.35,11.525 C307.233333,13.8416667 307.675,16.35 307.675,19.05 Z" id="Shape"></path>
            <path d="M331.325,12.9 C331.325,11.3666667 330.775,10.175 329.675,9.325 C328.575,8.475 327.108333,8.05 325.275,8.05 C324.608333,8.05 324.041667,8.06666667 323.575,8.1 C323.108333,8.13333333 322.575,8.2 321.975,8.3 L321.975,18.4 C322.541667,18.4666667 323.008333,18.5083333 323.375,18.525 C323.741667,18.5416667 324.175,18.55 324.675,18.55 C326.708333,18.55 328.325,18.075 329.525,17.125 C330.725,16.175 331.325,14.7666667 331.325,12.9 Z M332.825,37.35 L326.575,25.4 C326.308333,25.4333333 326.066667,25.45 325.85,25.45 C325.633333,25.45 325.391667,25.45 325.125,25.45 C324.491667,25.45 323.958333,25.4416667 323.525,25.425 C323.091667,25.4083333 322.575,25.3833333 321.975,25.35 L321.975,37.35 L313.475,37.35 L313.475,1.05 C315.041667,0.883333333 316.691667,0.741666667 318.425,0.625 C320.158333,0.508333333 322.108333,0.45 324.275,0.45 C327.141667,0.45 329.575,0.766666667 331.575,1.4 C333.575,2.03333333 335.216667,2.9 336.5,4 C337.783333,5.1 338.716667,6.39166667 339.3,7.875 C339.883333,9.35833333 340.175,10.9333333 340.175,12.6 C340.175,14.8 339.625,16.825 338.525,18.675 C337.425,20.525 335.875,22.0333333 333.875,23.2 L342.475,37.35 L332.825,37.35 Z" id="Shape"></path>
            <path d="M363.875,12.9 C363.875,11.3666667 363.325,10.175 362.225,9.325 C361.125,8.475 359.658333,8.05 357.825,8.05 C357.158333,8.05 356.591667,8.06666667 356.125,8.1 C355.658333,8.13333333 355.125,8.2 354.525,8.3 L354.525,18.4 C355.091667,18.4666667 355.558333,18.5083333 355.925,18.525 C356.291667,18.5416667 356.725,18.55 357.225,18.55 C359.258333,18.55 360.875,18.075 362.075,17.125 C363.275,16.175 363.875,14.7666667 363.875,12.9 Z M365.375,37.35 L359.125,25.4 C358.858333,25.4333333 358.616667,25.45 358.4,25.45 C358.183333,25.45 357.941667,25.45 357.675,25.45 C357.041667,25.45 356.508333,25.4416667 356.075,25.425 C355.641667,25.4083333 355.125,25.3833333 354.525,25.35 L354.525,37.35 L346.025,37.35 L346.025,1.05 C347.591667,0.883333333 349.241667,0.741666667 350.975,0.625 C352.708333,0.508333333 354.658333,0.45 356.825,0.45 C359.691667,0.45 362.125,0.766666667 364.125,1.4 C366.125,2.03333333 367.766667,2.9 369.05,4 C370.333333,5.1 371.266667,6.39166667 371.85,7.875 C372.433333,9.35833333 372.725,10.9333333 372.725,12.6 C372.725,14.8 372.175,16.825 371.075,18.675 C369.975,20.525 368.425,22.0333333 366.425,23.2 L375.025,37.35 L365.375,37.35 Z" id="Shape"></path>
            <path d="M405.225,19.05 C405.225,17.3833333 404.991667,15.8583333 404.525,14.475 C404.058333,13.0916667 403.4,11.9 402.55,10.9 C401.7,9.9 400.683333,9.11666667 399.5,8.55 C398.316667,7.98333333 396.991667,7.7 395.525,7.7 C394.091667,7.7 392.775,7.98333333 391.575,8.55 C390.375,9.11666667 389.35,9.9 388.5,10.9 C387.65,11.9 386.991667,13.0916667 386.525,14.475 C386.058333,15.8583333 385.825,17.3833333 385.825,19.05 C385.825,20.6833333 386.058333,22.1916667 386.525,23.575 C386.991667,24.9583333 387.65,26.1583333 388.5,27.175 C389.35,28.1916667 390.375,28.9833333 391.575,29.55 C392.775,30.1166667 394.091667,30.4 395.525,30.4 C396.991667,30.4 398.316667,30.1166667 399.5,29.55 C400.683333,28.9833333 401.7,28.1916667 402.55,27.175 C403.4,26.1583333 404.058333,24.9583333 404.525,23.575 C404.991667,22.1916667 405.225,20.6833333 405.225,19.05 Z M414.325,19.05 C414.325,21.75 413.866667,24.25 412.95,26.55 C412.033333,28.85 410.741667,30.8416667 409.075,32.525 C407.408333,34.2083333 405.416667,35.5333333 403.1,36.5 C400.783333,37.4666667 398.208333,37.95 395.375,37.95 C392.541667,37.95 389.975,37.4666667 387.675,36.5 C385.375,35.5333333 383.416667,34.2083333 381.8,32.525 C380.183333,30.8416667 378.941667,28.85 378.075,26.55 C377.208333,24.25 376.775,21.75 376.775,19.05 C376.775,16.35 377.233333,13.8416667 378.15,11.525 C379.066667,9.20833333 380.35,7.20833333 382,5.525 C383.65,3.84166667 385.641667,2.51666667 387.975,1.55 C390.308333,0.583333333 392.891667,0.1 395.725,0.1 C398.558333,0.1 401.116667,0.583333333 403.4,1.55 C405.683333,2.51666667 407.633333,3.84166667 409.25,5.525 C410.866667,7.20833333 412.116667,9.20833333 413,11.525 C413.883333,13.8416667 414.325,16.35 414.325,19.05 Z" id="Shape"></path>
            <path d="M437.975,12.9 C437.975,11.3666667 437.425,10.175 436.325,9.325 C435.225,8.475 433.758333,8.05 431.925,8.05 C431.258333,8.05 430.691667,8.06666667 430.225,8.1 C429.758333,8.13333333 429.225,8.2 428.625,8.3 L428.625,18.4 C429.191667,18.4666667 429.658333,18.5083333 430.025,18.525 C430.391667,18.5416667 430.825,18.55 431.325,18.55 C433.358333,18.55 434.975,18.075 436.175,17.125 C437.375,16.175 437.975,14.7666667 437.975,12.9 Z M439.475,37.35 L433.225,25.4 C432.958333,25.4333333 432.716667,25.45 432.5,25.45 C432.283333,25.45 432.041667,25.45 431.775,25.45 C431.141667,25.45 430.608333,25.4416667 430.175,25.425 C429.741667,25.4083333 429.225,25.3833333 428.625,25.35 L428.625,37.35 L420.125,37.35 L420.125,1.05 C421.691667,0.883333333 423.341667,0.741666667 425.075,0.625 C426.808333,0.508333333 428.758333,0.45 430.925,0.45 C433.791667,0.45 436.225,0.766666667 438.225,1.4 C440.225,2.03333333 441.866667,2.9 443.15,4 C444.433333,5.1 445.366667,6.39166667 445.95,7.875 C446.533333,9.35833333 446.825,10.9333333 446.825,12.6 C446.825,14.8 446.275,16.825 445.175,18.675 C444.075,20.525 442.525,22.0333333 440.525,23.2 L449.125,37.35 L439.475,37.35 Z" id="Shape"></path>
            <polygon id="Path" points="30.6 38.05 8.5 18.2 8.5 37.35 -2.84217094e-14 37.35 -2.84217094e-14 0.2 1.15 1.42108547e-14 22.95 19.7 22.95 0.7 31.45 0.7 31.45 37.9"></polygon>
            <path d="M51.7,15.4 L48.05,24.2 L55.3,24.2 L51.7,15.4 Z M60.75,37.35 L58,30.7 L45.35,30.7 L42.6,37.35 L33.95,37.35 L51.2,0.4 L52.35,0.4 L69.6,37.35 L60.75,37.35 Z" id="Shape"></path>
            <polygon id="Path" points="85.85 8.5 85.85 37.35 77.35 37.35 77.35 8.5 66.35 8.5 66.35 0.7 96.85 0.7 96.85 8.5"></polygon>
            <polygon id="Path" points="123.7 37.35 123.7 22.65 109.6 22.65 109.6 37.35 101.1 37.35 101.1 0.7 109.6 0.7 109.6 15.05 123.7 15.05 123.7 0.7 132.2 0.7 132.2 37.35"></polygon>
            <path d="M152.45,15.4 L148.8,24.2 L156.05,24.2 L152.45,15.4 Z M161.5,37.35 L158.75,30.7 L146.1,30.7 L143.35,37.35 L134.7,37.35 L151.95,0.4 L153.1,0.4 L170.35,37.35 L161.5,37.35 Z" id="Shape"></path>
            <polygon id="Path" points="203.45 38.05 181.35 18.2 181.35 37.35 172.85 37.35 172.85 0.2 174 1.42108547e-14 195.8 19.7 195.8 0.7 204.3 0.7 204.3 37.9"></polygon>
        </g>
    </g>
</svg>