<?xml version="1.0" encoding="UTF-8"?>
<svg width="360px" height="360px" viewBox="0 0 360 360" version="1.1" xmlns="http://www.w3.org/2000/svg" xmlns:xlink="http://www.w3.org/1999/xlink">
    <g id="Desktop" stroke="none" stroke-width="1" fill="none" fill-rule="evenodd">
        <g id="Desktop-HD" transform="translate(-540.000000, -333.000000)" fill="#333">
            <path d="M540,513 C540,413.588745 620.594894,333 720,333 C819.411255,333 900,413.594894 900,513 C900,612.411255 819.405106,693 720,693 C620.588745,693 540,612.405106 540,513 Z M605,466 L626.068689,466 C631.369506,466 637.023944,470.071833 638.705112,475.115337 L666.333333,558 L645.264644,558 C639.963827,558 634.309389,553.928167 632.628221,548.884663 L605,466 Z M670.166667,466 L700.833333,466 L700.833333,558 L670.166667,558 L670.166667,466 Z M704.666667,466 L735.333333,466 L735.333333,558 L704.666667,558 L704.666667,466 Z M739.166667,466 L769.833333,466 L769.833333,558 L739.166667,558 L739.166667,466 Z M773.666667,466 L794.735356,466 C800.036173,466 805.690611,470.071833 807.371779,475.115337 L835,558 L813.931311,558 C808.630494,558 802.976056,553.928167 801.294888,548.884663 L773.666667,466 Z" id="Combined-Shape"></path>
        </g>
    </g>
</svg>